<svg id="4631cd28-7e84-4aad-882c-8f0ab374abee" data-name="Layer 1" xmlns="http://www.w3.org/2000/svg" viewBox="0 0 139.3 120.64">
  <title>cool-logo</title>
  <g>
    <polygon points="69.65 10.32 112.95 85.32 26.35 85.32 69.65 10.32"/>
    <polygon points="69.65 10.32 112.95 35.32 112.95 85.32 69.65 110.32 26.35 85.32 26.35 35.32 69.65 10.32" style="fill: none;stroke: #000;stroke-miterlimit: 10"/>
    <polygon points="104.12 0.62 138.59 60.32 104.12 120.02 35.18 120.02 0.72 60.32 35.18 0.62 104.12 0.62" style="fill: none;stroke: #000;stroke-miterlimit: 10"/>
    <polygon points="104.12 0.62 69.65 10.32 35.18 0.62 26.35 35.32 0.72 60.32 26.35 85.32 35.18 120.02 69.65 110.32 104.12 120.02 112.95 85.32 138.59 60.32 112.95 35.32 104.12 0.62" style="fill: none;stroke: #000;stroke-miterlimit: 10"/>
  </g>
</svg>
